Format : AVI
Format/Info : Audio Video Interleave
File size : 1.07 GiB
Duration : 1h 27mn
Overall bit rate : 1 754 Kbps
Writing library : VirtualDub build 32842/release

Video
ID : 0
Format : MPEG-4 Visual
Format profile : Advanced Simple@L5
Format settings, BVOP : 2
Format settings, QPel : No
Format settings, GMC : No warppoints
Format settings, Matrix : Default (H.263)
Muxing mode : Packed bitstream
Codec ID : XVID
Codec ID/Hint : XviD
Duration : 1h 27mn
Bit rate : 1 618 Kbps
Width : 672 pixels
Height : 358 pixels
Display aspect ratio : 1.877
Frame rate : 23.976 fps
Color space : YUV
Chroma subsampling : 4:2:0
Bit depth : 8 bits
Scan type : Progressive
Compression mode : Lossy
Bits/(Pixel*Frame) : 0.281
Stream size : 1 008 MiB (92%)
Writing library : XviD 64

Audio
ID : 1
Format : MPEG Audio
Format version : Version 1
Format profile : Layer 3
Codec ID : 55
Codec ID/Hint : MP3
Duration : 1h 25mn
Bit rate mode : Constant
Bit rate : 128 Kbps
Channel(s) : 2 channels
Sampling rate : 44.1 KHz
Compression mode : Lossy
Stream size : 78.6 MiB (7%)
Alignment : Split accross interleaves
Interleave, duration : 42 ms (1.01 video frame)
Interleave, preload duration : 500 ms
Writing library : LAME3.98.4





 
http://www.imdb.com/title/tt1622979/









Users: (683 votes) 42 reviews | Critics: 3 reviews Metascore: 51/100 (based on 21 reviews from Metacritic.com)


Survivors of a suspension-bridge collapse learn there's no way you can cheat Death.

Director: Steven Quale
Writers: Eric Heisserer, Jeffrey Reddick (characters)
Stars: Nicholas D'Agosto, Emma Bell and Arlen Escarpeta








 
http://www.leetleech.org/images/80294034796783525458.png

 
http://www.leetleech.org/images/94625116413548072331.png









Source Used


Video HP..............Thanks

Audio IMAGiNE ..............Thanks



Well decided to do a v2 of this to give another option.........Last source was cropped to the top ...better vid quality.This one is cropped at the sides so either vid you lost something

Colours on this were bad....way too much red ..so toned that down some altering all the rgb colours then dropping the saturation.Used the levels filter as well and a slight sharpen

If you notice any/many oos then sue me lol im no syncer ...

Sample included so check it out 1st

Enjoy





Greetz to IMAGiNE,Flawl3ss,DiLLoN,BDK,NOiR,TOXiC,THC,Ez,Rx,Boobyblue,TaRiQ786
